# xmcd CD database file
#
# Track frame offsets:
#	150
#	15368
#	36143
#	56455
#	75719
#	94116
#	121066
#	137584
#	156986
#	176215
#	178800
#	200901
#
# Disc length: 3013 seconds
#
# Revision: 0
# Processed by: cddbd v1.5.2PL0 Copyright (c) Steve Scherf et al.
# Submitted via: CDex 1.51
#
DISCID=9d0bc30c
DTITLE=Bishop, Bonnie - Things I Know
DYEAR=2010
DGENRE=Country
TTITLE0=Think I Will
TTITLE1=Lucky Ones
TTITLE2=Take Care of Me
TTITLE3=Virginia
TTITLE4=Little By Little
TTITLE5=Things I Know
TTITLE6=Almost Like Home
TTITLE7=Give Me Away
TTITLE8=River of Joy
TTITLE9=John's Lament
TTITLE10=Shattered
TTITLE11=Everytime You Come Around
EXTD=YEAR: 2010
EXTT0=
EXTT1=
EXTT2=
EXTT3=
EXTT4=
EXTT5=
EXTT6=
EXTT7=
EXTT8=
EXTT9=
EXTT10=
EXTT11=
PLAYORDER=
